<svg width="130" height="50" viewBox="0 0 130 50" fill="none" xmlns="http://www.w3.org/2000/svg">
<path d="M10.032 9.334C7.656 9.334 5.808 7.486 5.808 5.11C5.808 2.668 7.59 0.819999 10.032 0.819999C12.474 0.819999 14.322 2.734 14.322 5.11C14.322 7.486 12.474 9.334 10.032 9.334ZM18.414 46.624C18.414 46.624 18.48 46.69 18.546 46.69V48.538H13.662H6.468H1.65V46.69C1.65 46.624 1.716 46.624 1.716 46.624C4.62 45.568 6.468 42.598 6.468 39.496V28.54C6.468 25.306 3.762 22.6 0.528 22.6V20.752L12.408 17.584C13.068 17.452 13.662 17.914 13.662 18.574V20.356V39.496C13.662 42.598 15.51 45.568 18.414 46.624Z" fill="#EFC8C4"/>
<path d="M51.4212 40.75H53.2032V49H19.6092V47.218H19.6752C22.4472 46.162 24.2952 43.522 24.2952 40.618V14.746C24.2952 11.842 22.4472 9.202 19.6752 8.212L19.6092 8.146V6.364H36.3732V8.146L36.3072 8.212C33.4032 9.268 31.6872 12.172 31.6872 15.208V40.882C31.6872 44.38 34.5252 47.218 38.0232 47.218H44.2932C44.5572 47.152 49.1772 45.502 51.4212 40.75ZM88.9412 46.69H89.0072V48.538H82.8032C80.0972 48.538 77.9192 46.36 77.9192 43.654V43.456C77.9192 43.456 74.4872 49.396 65.5772 49.396C58.8452 49.396 54.4892 45.964 54.4892 40.75C54.4892 35.536 59.0432 32.434 66.7652 32.434H77.1272V27.682C77.1272 23.194 74.2892 18.442 69.2732 18.442C64.6532 18.442 62.4752 23.92 63.9932 28.408L62.6732 29.662L56.9312 23.458C56.5352 23.062 56.6012 22.468 56.9312 22.072C60.6272 18.838 64.9172 17.188 70.1972 17.188C79.1732 17.188 84.3212 21.94 84.3212 30.124V39.628C84.3212 42.73 86.0372 45.634 88.9412 46.69ZM77.1272 39.1V34.018H68.0852C62.2772 34.018 61.6832 39.034 61.6832 40.42C61.6832 43.39 64.3232 46.36 68.2172 46.36C72.9692 46.36 77.1272 43.654 77.1272 39.1ZM113.686 17.188C123.058 17.188 129.856 23.986 129.856 33.292C129.856 42.598 123.058 49.396 113.686 49.396C105.04 49.396 100.75 41.806 100.75 41.806V45.238C100.75 47.086 99.232 48.538 97.45 48.538H89.662V46.69C91.048 46.228 92.038 45.502 92.764 44.776C93.886 43.654 94.414 42.136 94.414 40.618V11.644C94.414 8.476 91.774 5.836 88.54 5.836H88.474V3.988L100.156 0.819999C100.882 0.687997 101.542 1.216 101.542 1.942V23.128C101.542 23.128 106.558 17.188 113.686 17.188ZM111.904 46.624C118.042 46.624 122.53 41.806 122.53 33.226C122.53 25.108 118.24 19.696 111.508 19.696C105.106 19.696 100.75 26.692 100.75 33.952C100.75 41.212 106.69 46.624 111.904 46.624Z" fill="#3F3D56"/>
</svg>
